<?xml version="1.0" encoding="UTF-8" standalone="no"?>
<svg
   xmlns:dc="http://purl.org/dc/elements/1.1/"
   xmlns:cc="http://creativecommons.org/ns#"
   xmlns:rdf="http://www.w3.org/1999/02/22-rdf-syntax-ns#"
   xmlns:svg="http://www.w3.org/2000/svg"
   xmlns="http://www.w3.org/2000/svg"
   xmlns:sodipodi="http://sodipodi.sourceforge.net/DTD/sodipodi-0.dtd"
   xmlns:inkscape="http://www.inkscape.org/namespaces/inkscape"
   version="1.0"
   width="512.000000pt"
   height="512.000000pt"
   viewBox="0 0 512.000000 512.000000"
   preserveAspectRatio="xMidYMid meet"
   id="svg6"
   sodipodi:docname="block-_1_.svg"
   inkscape:version="1.0.2 (e86c870879, 2021-01-15)">
  <metadata
     id="metadata12">
    <rdf:RDF>
      <cc:Work
         rdf:about="">
        <dc:format>image/svg+xml</dc:format>
        <dc:type
           rdf:resource="http://purl.org/dc/dcmitype/StillImage" />
        <dc:title></dc:title>
      </cc:Work>
    </rdf:RDF>
  </metadata>
  <defs
     id="defs10" />
  <sodipodi:namedview
     pagecolor="#ffffff"
     bordercolor="#666666"
     borderopacity="1"
     objecttolerance="10"
     gridtolerance="10"
     guidetolerance="10"
     inkscape:pageopacity="0"
     inkscape:pageshadow="2"
     inkscape:window-width="1366"
     inkscape:window-height="693"
     id="namedview8"
     showgrid="false"
     inkscape:zoom="0.78662109"
     inkscape:cx="601.30602"
     inkscape:cy="341.33333"
     inkscape:window-x="0"
     inkscape:window-y="46"
     inkscape:window-maximized="1"
     inkscape:current-layer="svg6" />
  <g
     transform="translate(0.000000,512.000000) scale(0.100000,-0.100000)"
     fill="#000000"
     stroke="none"
     id="g4"
     style="fill:#dc3545;fill-opacity:1">
    <path
       d="M2370 5114 c-19 -2 -78 -9 -130 -15 -791 -90 -1522 -586 -1924 -1305 -146 -262 -252 -588 -297 -914 -18 -125 -18 -515 0 -640 105 -762 511 -1409 1146 -1826 609 -400 1377 -517 2090 -317 929 260 1646 1043 1819 1987 156 845 -103 1682 -705 2285 -399 398 -879 639 -1449 726 -100 15 -472 28 -550 19z m455 -959 c344 -59 638 -213 885 -464 240 -244 385 -527 446 -871 37 -205 19 -496 -43 -710 -25 -87 -109 -296 -122 -304 -4 -3 -499 487 -1101 1089 l-1094 1094 80 36 c167 76 340 124 519 145 105 12 317 4 430 -15z m489 -3026 c-8 -13 -217 -97 -304 -122 -387 -112 -807 -74 -1164 104 -671 336 -1023 1067 -865 1796 24 110 64 228 115 340 l35 77 1094 -1094 c602 -602 1092 -1097 1089 -1101z"
       id="path2"
       style="fill:#dc3545;fill-opacity:1" />
  </g>
</svg>
